<svg id="Calque_1" data-name="Calque 1" xmlns="http://www.w3.org/2000/svg" viewBox="0 0 247.18 50.7"><defs><style>.cls-1{fill:#fff;}</style></defs><path class="cls-1" d="M103.93,189.78l41.63-17a8,8,0,0,1,1-.33,3.53,3.53,0,0,1,.78-.12,3.14,3.14,0,0,1,2.28.8,2.82,2.82,0,0,1,.84,2.15,3.3,3.3,0,0,1-.7,2,4.3,4.3,0,0,1-1.84,1.43L110.33,194l37.61,15.34a4.74,4.74,0,0,1,1.84,1.48,3.25,3.25,0,0,1,.7,2,2.88,2.88,0,0,1-.82,2.13,2.77,2.77,0,0,1-2,.82,4.93,4.93,0,0,1-1.05-.1,5.62,5.62,0,0,1-1-.31l-41.75-17.14a9.06,9.06,0,0,1-3.06-1.91A3.27,3.27,0,0,1,99.66,194a3.14,3.14,0,0,1,1-2.29A10.1,10.1,0,0,1,103.93,189.78Z" transform="translate(-99.66 -169.15)"/><path class="cls-1" d="M342.54,189.78a10.12,10.12,0,0,1,3.26,1.93,3.16,3.16,0,0,1,1,2.29,3.28,3.28,0,0,1-1.15,2.26,9.19,9.19,0,0,1-3.07,1.93L300.9,215.33a9.83,9.83,0,0,1-1.16.33,4.57,4.57,0,0,1-.76.08,2.87,2.87,0,0,1-3-3,3,3,0,0,1,.64-1.83,6.6,6.6,0,0,1,1.95-1.62l10-4.08L336.18,194l-37.57-15.3a4.28,4.28,0,0,1-1.89-1.43,3.36,3.36,0,0,1-.7-2,2.8,2.8,0,0,1,.89-2.09,2.92,2.92,0,0,1,2.15-.86,3.79,3.79,0,0,1,.86.1,9.34,9.34,0,0,1,1,.31Z" transform="translate(-99.66 -169.15)"/><path class="cls-1" d="M173.25,169.15h21.33v2.31c-6,.57-7.05,1.09-7.05,8v13.37c1.58-.22,3.39-1.47,5.7-3.69,4.54-4.33,9.44-9.44,12.81-13.3,2.25-2.61,2-3.65-1.42-4.12l-2.06-.22v-2.31h19.22v2.31c-5.76.7-7.94,1.09-13.11,6.46-2.47,2.43-8.15,8-12.86,12.7,5.75,7,13.94,16.68,18.35,21.56,3.78,4.19,4.79,4.8,9.48,5.36v2.31h-13c-5.52-6.36-11.93-14.27-18.75-22.46-1.77-2.22-3.08-2.43-4.33-2.32v14.64c0,6.75.68,7.24,7.07,7.83v2.31H173.25v-2.31c6.3-.56,6.95-1.08,6.95-7.83V179.42c0-6.93-.59-7.48-6.95-8Z" transform="translate(-99.66 -169.15)"/><path class="cls-1" d="M275.67,206.76c-.5,2.59-2.81,10.73-3.58,13.09h-36.7v-2.31c7.05-.66,7.68-1.08,7.68-7.69V179.1c0-6.61-.78-7-6.95-7.64v-2.31h21.52v2.31c-6.21.61-7.06,1-7.06,7.64v31.48c0,4.68.54,5.93,5,6,.09,0,5.35.08,5.79.08,4.06,0,5.23-.55,7-2.53a27.34,27.34,0,0,0,4.78-8Z" transform="translate(-99.66 -169.15)"/></svg>